<?xml version="1.0" encoding="utf-8"?>
<!-- Generator: Adobe Illustrator 27.3.1, SVG Export Plug-In . SVG Version: 6.00 Build 0)  -->
<svg version="1.1" id="Layer_1" xmlns="http://www.w3.org/2000/svg" xmlns:xlink="http://www.w3.org/1999/xlink" x="0px" y="0px"
	 viewBox="0 0 800 800" style="enable-background:new 0 0 800 800;" xml:space="preserve">
<style type="text/css">
	.st0{fill-rule:evenodd;clip-rule:evenodd;fill:#E1F2FE;}
</style>
<path class="st0" d="M66.7,200c0-55.2,44.8-100,100-100h466.7c55.2,0,100,44.8,100,100v300c0,55.2-44.8,100-100,100h-200v33.3H500
	c18.4,0,33.3,14.9,33.3,33.3S518.4,700,500,700H300c-18.4,0-33.3-14.9-33.3-33.3s14.9-33.3,33.3-33.3h66.7V600h-200
	c-55.2,0-100-44.8-100-100V200z M166.7,166.7c-18.4,0-33.3,14.9-33.3,33.3v300c0,18.4,14.9,33.3,33.3,33.3h466.7
	c18.4,0,33.3-14.9,33.3-33.3V200c0-18.4-14.9-33.3-33.3-33.3H166.7z"/>
</svg>
