<?xml version="1.0" encoding="UTF-8"?>
<svg id="Layer_2" data-name="Layer 2" xmlns="http://www.w3.org/2000/svg" xmlns:xlink="http://www.w3.org/1999/xlink" viewBox="0 0 744.62 618.89">
  <defs>
    <style>
      .cls-1 {
        fill: #6fc;
      }

      .cls-2 {
        fill: url(#linear-gradient-2);
      }

      .cls-3 {
        fill: #fff;
      }

      .cls-4 {
        fill: url(#linear-gradient-17);
      }

      .cls-5 {
        fill: #3d3d3d;
      }

      .cls-6 {
        fill: url(#linear-gradient-15);
      }

      .cls-7 {
        fill: url(#linear-gradient-18);
      }

      .cls-8 {
        fill: #00000c;
      }

      .cls-9 {
        fill: url(#linear-gradient-14);
      }

      .cls-10 {
        fill: url(#linear-gradient-20);
      }

      .cls-11 {
        fill: url(#linear-gradient-6);
      }

      .cls-12 {
        fill: url(#linear-gradient-11);
      }

      .cls-13 {
        fill: url(#linear-gradient-10);
      }

      .cls-14 {
        fill: #030303;
      }

      .cls-15 {
        fill: url(#linear-gradient-16);
      }

      .cls-16 {
        fill: url(#linear-gradient-21);
      }

      .cls-17 {
        fill: url(#linear-gradient-5);
      }

      .cls-18 {
        fill: #eef2d6;
      }

      .cls-19 {
        fill: none;
      }

      .cls-20 {
        fill: url(#linear-gradient-7);
      }

      .cls-21 {
        fill: url(#linear-gradient-9);
      }

      .cls-22 {
        fill: url(#linear-gradient-22);
      }

      .cls-23 {
        fill: url(#linear-gradient-3);
      }

      .cls-24 {
        fill: url(#linear-gradient);
      }

      .cls-25 {
        fill: url(#linear-gradient-19);
      }

      .cls-26 {
        fill: url(#linear-gradient-4);
      }

      .cls-27 {
        fill: #666;
      }

      .cls-28 {
        fill: url(#linear-gradient-8);
      }

      .cls-29 {
        fill: url(#linear-gradient-12);
      }

      .cls-30 {
        fill: url(#linear-gradient-13);
      }

      .cls-31 {
        fill: #dfdfdf;
      }
    </style>
    <linearGradient id="linear-gradient" x1="463.79" y1="454.31" x2="463.79" y2="147.81" gradientUnits="userSpaceOnUse">
      <stop offset="0" stop-color="#9a9a9a"/>
      <stop offset=".09" stop-color="#a1a1a1"/>
      <stop offset=".24" stop-color="#b7b7b7"/>
      <stop offset=".42" stop-color="#dadada"/>
      <stop offset=".45" stop-color="#e2e2e2"/>
      <stop offset="1" stop-color="#c5c5c5"/>
    </linearGradient>
    <linearGradient id="linear-gradient-2" x1="463.77" y1="468.17" x2="463.77" y2="458.88" gradientUnits="userSpaceOnUse">
      <stop offset="0" stop-color="#eee"/>
      <stop offset=".46" stop-color="#cacaca"/>
      <stop offset="1" stop-color="#666"/>
    </linearGradient>
    <linearGradient id="linear-gradient-3" x1="-6183.89" y1="457.71" x2="-5950.09" y2="457.71" gradientTransform="translate(-5767.16) rotate(-180) scale(1 -1)" gradientUnits="userSpaceOnUse">
      <stop offset="0" stop-color="#f0f0f0"/>
      <stop offset="0" stop-color="#e8e8e8"/>
      <stop offset="0" stop-color="#d1d1d1"/>
      <stop offset="0" stop-color="#c3c3c3"/>
      <stop offset="0" stop-color="#bfbfbf"/>
      <stop offset=".01" stop-color="#c2c2c2"/>
      <stop offset=".02" stop-color="#ccc"/>
      <stop offset=".02" stop-color="#d7d7d7"/>
      <stop offset=".03" stop-color="#f6f6f6"/>
      <stop offset=".4" stop-color="#fff"/>
      <stop offset=".41" stop-color="#fff"/>
      <stop offset=".94" stop-color="#e4e4e4"/>
      <stop offset=".96" stop-color="#c1c1c1"/>
      <stop offset=".97" stop-color="#b2b2b2"/>
      <stop offset=".98" stop-color="#b6b6b6"/>
      <stop offset=".99" stop-color="#c5c5c5"/>
      <stop offset=".99" stop-color="#ddd"/>
      <stop offset="1" stop-color="#f6f6f6"/>
    </linearGradient>
    <linearGradient id="linear-gradient-4" x1="-6183.89" y1="457.22" x2="-5950.09" y2="457.22" gradientTransform="translate(-5767.16) rotate(-180) scale(1 -1)" gradientUnits="userSpaceOnUse">
      <stop offset="0" stop-color="#e2e2e2"/>
      <stop offset="0" stop-color="#c9c9c9"/>
      <stop offset="0" stop-color="#a9a9a9"/>
      <stop offset="0" stop-color="#929292"/>
      <stop offset="0" stop-color="#848484"/>
      <stop offset="0" stop-color="gray"/>
      <stop offset=".01" stop-color="#838383"/>
      <stop offset=".01" stop-color="#8d8d8d"/>
      <stop offset=".02" stop-color="#9e9e9e"/>
      <stop offset=".02" stop-color="#afafaf"/>
      <stop offset=".03" stop-color="#eee"/>
      <stop offset=".4" stop-color="#fff"/>
      <stop offset=".41" stop-color="#fff"/>
      <stop offset=".94" stop-color="#c8c8c8"/>
      <stop offset=".95" stop-color="#9e9e9e"/>
      <stop offset=".97" stop-color="#757575"/>
      <stop offset=".97" stop-color="#666"/>
      <stop offset=".98" stop-color="#6a6a6a"/>
      <stop offset=".98" stop-color="#797979"/>
      <stop offset=".99" stop-color="#919191"/>
      <stop offset=".99" stop-color="#b2b2b2"/>
      <stop offset="1" stop-color="#ddd"/>
      <stop offset="1" stop-color="#eee"/>
    </linearGradient>
    <linearGradient id="linear-gradient-5" x1="510.79" x2="744.59" gradientTransform="matrix(1,0,0,1,0,0)" xlink:href="#linear-gradient-3"/>
    <linearGradient id="linear-gradient-6" x1="416.73" y1="457.84" x2="510.79" y2="457.84" gradientUnits="userSpaceOnUse">
      <stop offset="0" stop-color="#f6f6f6"/>
      <stop offset=".06" stop-color="#e4e4e4"/>
      <stop offset=".51" stop-color="#f6f6f6"/>
      <stop offset=".94" stop-color="#e4e4e4"/>
      <stop offset="1" stop-color="#f6f6f6"/>
    </linearGradient>
    <linearGradient id="linear-gradient-7" x1="510.79" x2="744.59" gradientTransform="matrix(1,0,0,1,0,0)" xlink:href="#linear-gradient-4"/>
    <linearGradient id="linear-gradient-8" x1="416.73" y1="457.36" x2="510.79" y2="457.36" gradientUnits="userSpaceOnUse">
      <stop offset="0" stop-color="#eee"/>
      <stop offset=".06" stop-color="#c8c8c8"/>
      <stop offset=".51" stop-color="#eee"/>
      <stop offset=".94" stop-color="#c8c8c8"/>
      <stop offset="1" stop-color="#eee"/>
    </linearGradient>
    <linearGradient id="linear-gradient-9" x1="-2911.04" y1="3132.23" x2="-2895.8" y2="3132.23" gradientTransform="translate(-2988.14 3002) rotate(90) scale(1 -1)" gradientUnits="userSpaceOnUse">
      <stop offset="0" stop-color="#f1f1f1"/>
      <stop offset=".06" stop-color="#dcdcdc"/>
      <stop offset=".15" stop-color="#c6c6c6"/>
      <stop offset=".25" stop-color="#b5b5b5"/>
      <stop offset=".37" stop-color="#a9a9a9"/>
      <stop offset=".54" stop-color="#a2a2a2"/>
      <stop offset="1" stop-color="#a1a1a1"/>
    </linearGradient>
    <linearGradient id="linear-gradient-10" x1="-2548.78" y1="3132.21" x2="-2533.98" y2="3132.21" gradientTransform="translate(-2988.14 3002) rotate(90) scale(1 -1)" gradientUnits="userSpaceOnUse">
      <stop offset="0" stop-color="#a1a1a1"/>
      <stop offset=".46" stop-color="#a2a2a2"/>
      <stop offset=".63" stop-color="#a9a9a9"/>
      <stop offset=".75" stop-color="#b5b5b5"/>
      <stop offset=".85" stop-color="#c6c6c6"/>
      <stop offset=".94" stop-color="#dcdcdc"/>
      <stop offset="1" stop-color="#f1f1f1"/>
    </linearGradient>
    <linearGradient id="linear-gradient-11" x1="-2909.56" y1="2996.27" x2="-2535.46" y2="2996.27" gradientTransform="translate(-2988.14 3002) rotate(90) scale(1 -1)" gradientUnits="userSpaceOnUse">
      <stop offset="0" stop-color="#c9c9c9"/>
      <stop offset=".48" stop-color="#f1f1f1"/>
      <stop offset=".64" stop-color="#ececec"/>
      <stop offset=".82" stop-color="#dedede"/>
      <stop offset="1" stop-color="#c9c9c9"/>
    </linearGradient>
    <linearGradient id="linear-gradient-12" y1="3268.15" y2="3268.15" xlink:href="#linear-gradient-11"/>
    <linearGradient id="linear-gradient-13" x1="219.65" y1="390.69" x2="221.37" y2="390.69" gradientUnits="userSpaceOnUse">
      <stop offset="0" stop-color="#666"/>
      <stop offset="1" stop-color="#000"/>
    </linearGradient>
    <linearGradient id="linear-gradient-14" x1="334.98" y1="390.71" x2="336.69" y2="390.71" gradientUnits="userSpaceOnUse">
      <stop offset="0" stop-color="#000"/>
      <stop offset="1" stop-color="#666"/>
    </linearGradient>
    <linearGradient id="linear-gradient-15" x1="278.04" y1="509.01" x2="278.04" y2="495.36" gradientUnits="userSpaceOnUse">
      <stop offset="0" stop-color="#959595"/>
      <stop offset="1" stop-color="#000"/>
    </linearGradient>
    <linearGradient id="linear-gradient-16" x1="278.04" y1="285.47" x2="278.04" y2="268.42" gradientUnits="userSpaceOnUse">
      <stop offset="0" stop-color="#000"/>
      <stop offset="1" stop-color="gray"/>
    </linearGradient>
    <linearGradient id="linear-gradient-17" x1="329.61" y1="390.78" x2="333.76" y2="390.78" gradientUnits="userSpaceOnUse">
      <stop offset="0" stop-color="#f1f1f1"/>
      <stop offset="0" stop-color="#f0f0f0"/>
      <stop offset=".14" stop-color="#b7b7b7"/>
      <stop offset=".27" stop-color="#888"/>
      <stop offset=".4" stop-color="#636363"/>
      <stop offset=".51" stop-color="#484848"/>
      <stop offset=".62" stop-color="#383838"/>
      <stop offset=".7" stop-color="#333"/>
    </linearGradient>
    <linearGradient id="linear-gradient-18" x1="224.71" y1="499.96" x2="331.38" y2="499.96" gradientUnits="userSpaceOnUse">
      <stop offset="0" stop-color="#1a1a1a"/>
      <stop offset=".12" stop-color="#444"/>
      <stop offset=".23" stop-color="#666"/>
      <stop offset=".34" stop-color="#7e7e7e"/>
      <stop offset=".44" stop-color="#8c8c8c"/>
      <stop offset=".52" stop-color="#929292"/>
      <stop offset=".59" stop-color="#8a8a8a"/>
      <stop offset=".7" stop-color="#757575"/>
      <stop offset=".82" stop-color="#545454"/>
      <stop offset=".97" stop-color="#252525"/>
      <stop offset="1" stop-color="#1a1a1a"/>
    </linearGradient>
    <linearGradient id="linear-gradient-19" y1="281.62" x2="333.77" y2="281.62" xlink:href="#linear-gradient-18"/>
    <linearGradient id="linear-gradient-20" x1="222.32" y1="390.71" x2="224.79" y2="390.71" gradientUnits="userSpaceOnUse">
      <stop offset="0" stop-color="#c8c8c8"/>
      <stop offset=".21" stop-color="#9f9f9f"/>
      <stop offset=".59" stop-color="#5d5d5d"/>
      <stop offset=".86" stop-color="#333"/>
      <stop offset="1" stop-color="#242424"/>
    </linearGradient>
    <linearGradient id="linear-gradient-21" x1="329.59" y1="390.8" x2="333.76" y2="390.8" gradientUnits="userSpaceOnUse">
      <stop offset="0" stop-color="#242424"/>
      <stop offset=".14" stop-color="#333"/>
      <stop offset=".41" stop-color="#5d5d5d"/>
      <stop offset=".79" stop-color="#9f9f9f"/>
      <stop offset="1" stop-color="#c8c8c8"/>
    </linearGradient>
    <linearGradient id="linear-gradient-22" x1="270.85" y1="281.06" x2="284.52" y2="281.06" gradientUnits="userSpaceOnUse">
      <stop offset="0" stop-color="#333"/>
      <stop offset=".09" stop-color="#2a2a2a"/>
      <stop offset=".29" stop-color="#1e1e1e"/>
      <stop offset=".48" stop-color="#1a1a1a"/>
      <stop offset=".79" stop-color="#1b1b1b"/>
      <stop offset=".9" stop-color="#222"/>
      <stop offset=".98" stop-color="#2e2e2e"/>
      <stop offset="1" stop-color="#333"/>
    </linearGradient>
  </defs>
  <g id="object">
    <g>
      <circle class="cls-3" cx="372.31" cy="309.45" r="309.45"/>
      <g>
        <g>
          <g>
            <path class="cls-24" d="m679.46,147.81H248.15c-7.73,0-14,6.27-14,14v292.5h2V159.8c0-.62.05-1.23.14-1.82.03-.2.06-.39.11-.59.04-.19.08-.39.13-.58.05-.19.1-.38.16-.57.5-1.59,1.32-3.04,2.38-4.27.12-.15.25-.29.39-.42.06-.07.13-.14.2-.21.61-.61,1.29-1.15,2.01-1.62.24-.15.49-.3.75-.44.25-.14.51-.27.78-.39,0,0,0,0,0,0,.18-.08.36-.15.53-.22,0,0,0,0,0,0,1.36-.53,2.84-.83,4.38-.83h431.3c2.06,0,4,.52,5.7,1.45.25.14.5.29.75.44.32.21.63.43.94.67h0c.15.12.3.24.44.37t0,0c.22.19.43.38.63.59.07.07.14.14.2.21.13.14.26.28.39.42,1.82,2.1,2.92,4.84,2.92,7.83v294.5h2.03V160.92c-.45-7.32-6.53-13.12-13.96-13.12Z"/>
            <path d="m691.39,159.8v284.68H236.16V159.8c0-6.6,5.37-11.97,11.97-11.97h431.31c6.6,0,11.97,5.37,11.97,11.97Z"/>
            <g>
              <path class="cls-2" d="m182.93,458.88c19.75,6.16,40.32,9.3,61,9.3h439.68c20.69,0,41.25-3.13,61-9.3H182.93Z"/>
              <path class="cls-23" d="m182.93,455.54v3.34h226.41c2.23,0,4.45.32,6.62.83.26.06.51.12.77.16v-4.34h-233.8Z"/>
              <path class="cls-26" d="m182.93,455.05v3.34h226.41c2.23,0,4.45.32,6.62.83.26.06.51.12.77.16v-4.34h-233.8Z"/>
              <rect class="cls-5" x="236.16" y="444.48" width="455.24" height="9.83"/>
              <path class="cls-17" d="m744.59,455.54v3.34h-226.41c-2.23,0-4.45.32-6.62.83-.26.06-.51.12-.77.16v-4.34h233.8Z"/>
              <path class="cls-11" d="m510.79,455.54v4.34c-.96.18-1.94.27-2.93.27h-88.19c-.99,0-1.97-.09-2.93-.27v-4.34h94.06Z"/>
              <path class="cls-20" d="m744.59,455.05v3.34h-226.41c-2.23,0-4.45.32-6.62.83-.26.06-.51.12-.77.16v-4.34h233.8Z"/>
              <path class="cls-28" d="m510.79,455.05v4.34c-.96.18-1.94.27-2.93.27h-88.19c-.99,0-1.97-.09-2.93-.27v-4.34h94.06Z"/>
              <polygon class="cls-27" points="693.42 454.31 693.42 455.05 691.39 455.05 691.39 455.05 236.16 455.05 236.16 455.05 234.16 455.05 234.16 454.31 693.42 454.31"/>
            </g>
          </g>
          <rect class="cls-1" x="245.57" y="165.27" width="436.4" height="273.76"/>
        </g>
        <g>
          <g>
            <path class="cls-19" d="m14.93,467.98c.39.03.79.04,1.19.04h255.89c.4,0,.8-.01,1.19-.04.11,0,.22-.02.34-.03.67-.06,1.33-.17,1.98-.32.12-.02.25-.05.37-.09.09-.02.18-.04.28-.07,1.14-.31,2.23-.74,3.26-1.28.11-.05.22-.11.33-.18.23-.12.44-.25.66-.39.1-.06.2-.12.3-.19.1-.06.21-.13.31-.21.29-.19.57-.4.84-.62.12-.09.24-.19.35-.29.18-.14.36-.3.53-.46.1-.09.2-.19.3-.29.18-.16.35-.34.52-.52,0,0,.01,0,.02-.02.34-.36.66-.73.97-1.12,0,0,0-.01.02-.02.46-.58.87-1.19,1.24-1.83.13-.21.25-.43.37-.66.01-.03.03-.07.05-.1.1-.19.19-.38.28-.57.11-.23.21-.46.3-.69.1-.24.19-.47.27-.71.08-.23.16-.47.23-.71,0,0,0-.02,0-.04.07-.24.14-.48.2-.72.06-.25.12-.5.16-.75.05-.26.1-.51.13-.77.03-.23.06-.45.08-.68,0-.03,0-.07,0-.11.03-.37.06-.74.07-1.11,0-.14,0-.27,0-.41V106.95c0-.14,0-.27,0-.41,0-.37-.03-.74-.07-1.11,0-.03,0-.07,0-.11-.02-.23-.05-.45-.08-.68-.03-.26-.08-.51-.13-.77-.04-.25-.1-.5-.16-.75-.06-.24-.12-.48-.2-.72,0-.01,0-.03,0-.04-.07-.24-.15-.47-.23-.71-.08-.24-.17-.47-.27-.71-.09-.23-.19-.46-.3-.69-.08-.19-.18-.38-.28-.57-.02-.03-.04-.07-.05-.1-.11-.22-.24-.44-.37-.66-.37-.64-.78-1.25-1.24-1.83,0,0-.01-.01-.02-.02-.31-.39-.63-.76-.97-1.12,0,0-.01-.01-.02-.02-.17-.18-.34-.36-.52-.52-.1-.1-.2-.19-.3-.29-.18-.16-.35-.32-.53-.46-.11-.1-.23-.19-.35-.29-.27-.22-.55-.42-.84-.62-.1-.07-.21-.14-.31-.21-.1-.07-.2-.13-.3-.19-.22-.14-.43-.27-.66-.39-.11-.06-.22-.12-.33-.18-1.03-.54-2.12-.98-3.26-1.28-.09-.02-.19-.05-.28-.07-.12-.03-.25-.06-.37-.09-.65-.15-1.31-.25-1.98-.32-.11,0-.22-.02-.34-.03-.39-.03-.79-.04-1.19-.04H16.13c-.4,0-.8.01-1.19.04-.12,0-.25.02-.37.03-.66.06-1.3.17-1.93.31-.13.02-.25.05-.38.09-.11.02-.22.05-.33.08-1.12.31-2.2.74-3.21,1.27-.11.06-.22.12-.33.18-.44.25-.87.51-1.29.8-.09.07-.19.14-.29.21-.18.13-.36.26-.53.4-.45.36-.88.74-1.3,1.14-.09.09-.18.18-.27.27-.05.04-.09.09-.13.14-.04.04-.09.09-.12.13-.14.14-.27.28-.39.43-.12.13-.24.28-.35.42-.05.06-.1.12-.14.18-.03.03-.06.07-.08.11-.12.15-.24.31-.35.46,0,.01-.01.02-.03.04-.13.19-.26.38-.39.58,0,.02-.02.04-.04.06-.12.19-.24.38-.35.58-.13.21-.25.43-.37.66-.02.03-.03.07-.05.1-.1.19-.19.38-.28.57-.11.23-.21.46-.3.69-.1.23-.19.47-.27.71-.26.72-.46,1.46-.6,2.22-.05.26-.1.51-.13.77-.03.23-.06.45-.08.68,0,.03,0,.07,0,.11-.01.11-.02.23-.02.35-.01.14-.02.29-.03.43-.01.25-.02.49-.02.75v345.1c0,.25,0,.5.02.74,0,.14.01.29.03.43,0,.12,0,.24.02.35,0,.03,0,.07,0,.11.02.23.05.45.08.68.03.26.08.51.13.77.14.76.35,1.5.6,2.22.08.24.17.48.27.71.09.23.19.46.3.69.08.19.18.38.28.57.02.03.03.07.05.1.12.22.24.44.37.66.11.2.23.39.35.58.01.02.03.04.04.06.13.19.26.39.39.58.01.01.02.02.03.04.11.16.23.31.35.46.02.04.05.07.08.11.04.06.09.12.14.18.11.14.23.29.35.42.12.15.25.29.39.43.03.04.08.09.12.13.04.04.08.09.13.14.09.09.18.18.27.27.41.4.84.78,1.3,1.14.17.14.35.27.53.4.1.07.2.14.29.21.42.29.85.55,1.29.8.11.06.22.12.33.18,1.01.53,2.09.96,3.21,1.27.1.03.22.06.33.08.12.03.25.06.38.09.63.14,1.27.25,1.93.31.12.01.25.02.37.03Zm1.19-1.44c-8,0-14.5-6.5-14.5-14.5V106.95c0-8,6.5-14.5,14.5-14.5h255.89c8,0,14.5,6.5,14.5,14.5v345.1c0,8-6.5,14.5-14.5,14.5H16.13Z"/>
            <path class="cls-31" d="m272.02,90.81H16.13c-8.89,0-16.13,7.24-16.13,16.13v345.1c0,8.89,7.24,16.13,16.13,16.13h255.89c8.89,0,16.13-7.24,16.13-16.13V106.94c0-8.89-7.24-16.13-16.13-16.13Zm15.99,361.23c0,.14,0,.27-.01.41,0,.12-.01.22-.01.34v.05c-.01.15-.02.31-.04.46,0,.09-.01.17-.02.26,0,.04-.01.08-.01.11-.02.23-.05.45-.08.67-.04.26-.08.51-.13.77-.05.25-.11.5-.17.74-.05.25-.12.49-.19.72-.01.02-.01.03-.01.04-.08.24-.15.47-.23.7-.09.24-.17.48-.27.71-.1.23-.19.46-.3.69-.09.19-.18.38-.28.57-.02.03-.04.06-.05.1-.12.22-.24.44-.36.65-.38.64-.79,1.26-1.25,1.83-.01,0-.02.02-.02.03-.31.39-.62.75-.96,1.12-.01,0-.02,0-.02.02-.17.17-.34.35-.52.51-.1.1-.19.19-.3.29-.17.15-.35.31-.53.45-.11.1-.22.2-.35.29-.27.21-.55.42-.83.61-.1.07-.21.14-.31.21-.1.06-.2.13-.3.19-.22.14-.43.27-.66.39-.11.06-.22.12-.33.17-1.03.54-2.11.98-3.26,1.29-.09.03-.18.05-.28.07-.12.03-.24.06-.36.09-.65.15-1.32.25-1.98.31-.12.01-.22.02-.34.03-.39.03-.79.05-1.2.05H16.13c-.4,0-.8-.02-1.2-.05-.12,0-.25-.02-.37-.03-.66-.07-1.31-.17-1.94-.31-.13-.03-.25-.06-.37-.09-.11-.02-.22-.05-.33-.08-1.12-.31-2.2-.74-3.21-1.28-.11-.05-.22-.11-.33-.17-.44-.25-.87-.51-1.3-.8-.09-.07-.19-.13-.29-.2-.17-.13-.35-.26-.52-.4-.45-.35-.88-.73-1.3-1.15-.1-.08-.18-.17-.27-.27-.05-.04-.1-.09-.14-.13-.04-.05-.08-.09-.12-.14-.14-.13-.26-.28-.39-.42-.11-.13-.23-.28-.34-.42l-.15-.18s-.06-.07-.08-.1c-.12-.16-.24-.31-.35-.47,0-.01-.01-.02-.03-.04-.13-.18-.26-.38-.39-.57-.01-.02-.02-.04-.04-.06-.12-.19-.24-.38-.34-.58-.13-.21-.25-.43-.37-.65-.02-.04-.03-.07-.05-.1-.09-.19-.19-.38-.28-.57-.1-.23-.2-.46-.3-.69-.09-.23-.18-.47-.27-.71-.25-.71-.45-1.46-.59-2.21-.06-.26-.1-.51-.14-.77-.03-.22-.06-.44-.08-.67,0-.03-.01-.07-.01-.11v-.07c-.01-.09-.02-.18-.02-.28-.02-.14-.03-.28-.03-.42-.02-.25-.02-.49-.02-.75V106.94c0-.25,0-.49.02-.74,0-.14.01-.28.03-.43,0-.09,0-.18.02-.28v-.06s.01-.08.01-.11c.02-.23.05-.45.08-.67.04-.26.08-.52.14-.77.14-.76.34-1.5.59-2.21.09-.25.18-.48.27-.71.1-.23.2-.46.3-.69.09-.19.19-.38.28-.57.02-.03.03-.07.05-.1.12-.22.24-.44.37-.65.1-.2.22-.39.34-.58.02-.02.03-.04.04-.06.13-.19.26-.39.39-.58.02-.01.03-.02.03-.04.11-.15.23-.31.35-.46.02-.04.05-.07.08-.11.05-.05.1-.11.15-.17.11-.14.23-.29.34-.42.13-.15.25-.29.39-.43.04-.04.08-.09.12-.13.04-.04.09-.09.14-.14.09-.09.17-.18.27-.27.41-.4.84-.78,1.3-1.14.17-.14.35-.27.52-.4.1-.07.2-.14.29-.2.42-.29.85-.55,1.3-.8.11-.06.22-.12.33-.18,1-.53,2.09-.95,3.21-1.27.11-.03.22-.06.33-.08.12-.04.24-.07.37-.09.63-.14,1.28-.25,1.94-.31.12,0,.25-.02.37-.03.39-.03.79-.05,1.2-.05h255.89c.4,0,.8.02,1.2.05.12,0,.22.02.34.03.66.06,1.33.16,1.98.31.12.02.24.05.36.09.1.02.19.04.28.07,1.15.3,2.23.73,3.26,1.28.11.06.22.12.33.18.23.12.44.25.66.39.1.06.2.13.3.19.1.07.21.14.31.21.28.19.56.39.83.61.13.09.24.19.35.28.18.15.36.31.53.46.11.09.2.19.3.29.18.16.35.33.52.51,0,.01.01.01.02.02.33.35.65.73.96,1.12,0,0,.01,0,.02.02.45.58.86,1.2,1.25,1.84.12.21.24.43.36.65.01.03.03.07.05.1.1.19.19.38.28.57.11.23.2.46.3.69.1.23.18.46.27.71.08.23.15.46.23.7,0,0,0,.02.01.04.07.23.14.47.19.71.06.25.12.5.17.75s.09.51.13.77c.03.22.06.44.08.67,0,.03.01.07.01.11v.06c.01.07.02.13.02.2.02.15.03.3.04.46v.05c0,.11.01.22.01.34.01.13.01.27.01.4v345.1Z"/>
            <rect class="cls-18" x="12.23" y="103.05" width="263.68" height="352.88" rx="3.89" ry="3.89"/>
            <path class="cls-14" d="m16.13,466.55h255.89c8,0,14.5-6.5,14.5-14.5V106.95c0-8-6.5-14.5-14.5-14.5H16.13c-8,0-14.5,6.5-14.5,14.5v345.1c0,8,6.5,14.5,14.5,14.5Zm0-10.36c-2.28,0-4.14-1.86-4.14-4.14V106.95c0-2.28,1.86-4.14,4.14-4.14h255.89c2.28,0,4.14,1.86,4.14,4.14v345.1c0,2.28-1.86,4.14-4.14,4.14H16.13Z"/>
          </g>
          <path class="cls-21" d="m287.98,106.2c0-.17-.02-.35-.03-.52,0-.09,0-.17-.02-.26,0-.03,0-.07,0-.11-.02-.23-.05-.45-.08-.68-.04-.26-.08-.51-.13-.77-.05-.25-.1-.5-.16-.75-.06-.24-.13-.48-.2-.72,0-.01,0-.03,0-.04-.07-.24-.15-.47-.23-.71-.08-.24-.17-.48-.27-.71-.09-.23-.19-.46-.3-.69-.09-.19-.18-.38-.28-.57-.02-.03-.04-.07-.05-.1-.12-.22-.24-.44-.37-.66-.37-.64-.79-1.25-1.24-1.83,0,0-.01-.01-.02-.02-.31-.38-.63-.76-.97-1.12,0,0-.01-.01-.02-.02-.17-.18-.34-.35-.52-.52-.1-.1-.2-.19-.3-.29-.17-.15-.35-.31-.53-.46-.11-.1-.23-.19-.35-.29-.27-.21-.55-.42-.84-.62-.1-.07-.21-.14-.31-.21-.1-.06-.2-.13-.3-.19-.22-.14-.43-.27-.66-.39-.11-.06-.22-.12-.33-.18-1.03-.54-2.12-.98-3.26-1.28-.09-.02-.18-.05-.28-.07-.12-.03-.25-.06-.37-.09-.65-.15-1.31-.25-1.98-.32-.11,0-.22-.02-.34-.03-.39-.03-.79-.04-1.19-.04H16.13c-.4,0-.8.01-1.19.04-.12,0-.25.02-.37.03-.66.06-1.3.17-1.93.31-.13.02-.25.05-.38.09-.11.02-.22.05-.33.08-1.12.31-2.2.74-3.21,1.27-.11.06-.22.12-.33.18-.44.25-.87.51-1.29.8-.09.07-.19.14-.29.21-.18.13-.36.26-.53.4-.45.36-.88.74-1.3,1.14-.09.09-.18.18-.27.27-.05.04-.09.09-.13.14-.04.04-.09.09-.12.13-.14.14-.27.28-.39.43-.12.13-.24.28-.35.42-.05.06-.1.12-.14.18-.03.03-.06.07-.08.11-.12.15-.24.31-.35.46,0,.01-.01.02-.03.04-.13.19-.26.38-.39.58,0,.02-.02.04-.04.06-.12.19-.24.38-.35.58-.13.21-.25.43-.37.66-.02.03-.03.07-.05.1-.09.19-.19.38-.28.57-.11.23-.21.46-.3.69-.1.23-.19.47-.27.71-.25.72-.45,1.46-.6,2.22-.05.26-.09.51-.13.77-.03.22-.06.45-.08.68,0,.03,0,.07,0,.11-.01.11-.02.23-.02.35,0-.09.01-.19.02-.28.02-.24.05-.47.09-.71.01-.11.03-.23.06-.34.02-.14.04-.28.07-.42.04-.21.09-.42.14-.62.05-.22.11-.44.18-.66.05-.18.11-.36.18-.54.13-.38.27-.75.44-1.11.04-.11.1-.23.15-.34.08-.17.16-.35.25-.51,0-.01.01-.03.02-.04.1-.19.21-.38.32-.57,0,0,0-.02.01-.02.08-.13.16-.27.24-.39.07-.11.14-.23.22-.34.01-.02.03-.05.05-.07.12-.18.25-.36.37-.53.12-.17.25-.34.39-.5.02-.04.05-.07.09-.1.12-.16.26-.32.41-.47.15-.17.32-.34.48-.5.14-.14.29-.29.44-.42.04-.03.08-.07.12-.11.15-.13.31-.27.47-.4.18-.15.36-.3.55-.43.15-.11.3-.22.45-.32.07-.06.15-.11.23-.16.09-.06.19-.13.3-.19.09-.06.19-.12.29-.18.19-.11.38-.23.58-.33.12-.06.24-.13.37-.19.29-.14.58-.28.88-.4.09-.04.19-.08.29-.12.15-.06.3-.11.45-.17.19-.07.39-.13.59-.19.2-.06.4-.12.6-.17,0,0,.02,0,.03,0,.22-.06.44-.11.67-.16.01,0,.02,0,.03,0,.17-.03.34-.07.5-.09.78-.14,1.59-.21,2.41-.21h258.85c.29,0,.58,0,.86.03.15,0,.31.01.45.03.13,0,.26.02.38.04.06,0,.12.01.18.02.17.02.34.04.51.08.02,0,.04,0,.07,0,.1.01.21.03.31.05.05,0,.1.02.15.03.02,0,.03,0,.05,0,.15.03.3.06.45.1.06.01.13.03.19.05.21.05.42.11.63.18.21.06.41.13.61.2,0,0,.01,0,.02,0,.1.03.2.07.3.11.01,0,.02,0,.04.01.11.04.22.08.33.13,0,0,.01,0,.02,0,.3.13.59.26.88.4.12.06.24.12.37.19.2.1.39.22.58.33.1.05.19.11.29.18.1.06.2.12.3.19.08.05.16.1.23.16.15.1.3.21.45.32.19.13.37.28.55.43.14.11.28.23.41.35.02.01.04.03.06.05.04.04.08.08.12.11.01.01.03.03.04.04.13.13.27.26.39.38.13.13.26.26.37.38,0,0,.01.02.02.03.05.05.11.11.16.18.11.12.22.24.32.37.03.04.07.08.1.12.13.16.27.33.39.5.1.12.19.25.27.37,0,0,.02.02.03.04.07.1.14.2.2.3.11.17.22.34.33.52,0,0,0,.02.02.03.07.12.14.24.2.36.04.06.08.13.11.2.07.13.14.26.2.38.09.17.17.35.25.52.06.13.12.26.17.38.02.05.04.09.06.14.05.14.11.28.16.42.03.08.06.17.09.26,0,.02.01.03.02.05.05.16.1.32.15.48.05.17.1.34.14.51,0,.02.01.04.02.07.01.06.03.12.04.18.04.16.08.33.11.5,0,0,0,.01,0,.02.03.14.05.28.07.42.02.11.04.22.06.34.03.23.06.47.09.71.02.23.04.47.05.71Z"/>
          <path class="cls-31" d="m288,106.95c0-.25,0-.5-.02-.75.01.25.02.5.02.75Z"/>
          <path class="cls-13" d="m16.13,468.03h255.89c.4,0,.8-.01,1.19-.04.11,0,.22-.02.34-.03.67-.06,1.33-.17,1.98-.32.12-.02.25-.05.37-.09.09-.02.19-.04.28-.07,1.14-.31,2.23-.74,3.26-1.28.11-.06.22-.12.33-.18.23-.12.44-.25.66-.39.1-.06.2-.13.3-.19.1-.07.21-.14.31-.21.29-.2.57-.4.84-.62.12-.09.24-.19.35-.29.18-.15.36-.31.53-.46.1-.09.2-.19.3-.29.18-.17.35-.34.52-.52,0,0,.01,0,.02-.02.34-.36.66-.73.97-1.12,0,0,0-.01.02-.02.45-.58.87-1.19,1.24-1.83.13-.21.25-.43.37-.66.01-.03.03-.07.05-.1.09-.19.19-.38.28-.57.11-.23.21-.46.3-.69.1-.23.19-.47.27-.71.08-.23.16-.47.23-.71,0,0,0-.02,0-.04.07-.24.13-.48.2-.72.06-.25.11-.5.16-.75.05-.26.09-.51.13-.77.03-.22.06-.45.08-.68,0-.03,0-.07,0-.11,0-.09.01-.17.02-.26,0,.06-.01.13-.02.19-.02.24-.05.47-.09.71-.01.11-.03.23-.06.34-.02.14-.04.28-.07.42-.05.24-.1.47-.16.7-.05.2-.1.39-.16.58-.05.16-.1.32-.15.48-.1.3-.21.59-.33.88-.05.13-.11.26-.17.38-.07.18-.16.36-.25.52-.06.13-.13.26-.2.38-.03.07-.07.14-.11.2-.07.13-.14.26-.22.39-.1.18-.22.35-.33.52-.06.1-.13.2-.2.3-.09.14-.2.28-.3.41-.12.17-.25.34-.39.5-.03.04-.07.08-.1.12-.1.12-.2.25-.32.37-.05.06-.1.12-.16.18-.13.14-.26.28-.4.41-.14.14-.29.29-.44.42-.04.03-.08.07-.12.11-.15.13-.31.27-.47.4-.18.15-.36.3-.55.43-.15.11-.3.22-.45.32-.07.06-.15.11-.23.16-.1.06-.2.13-.3.19-.09.06-.19.12-.29.18-.19.11-.38.23-.58.33-.12.06-.24.13-.37.19-.29.14-.58.28-.88.4-.12.05-.24.09-.36.14-.12.05-.24.09-.37.14-.2.07-.4.14-.61.2-.21.06-.42.12-.63.18-.23.06-.46.11-.7.16-.17.04-.35.07-.53.09-.77.13-1.57.2-2.39.2H14.65c-.82,0-1.63-.07-2.41-.21-.17-.02-.34-.05-.5-.09,0,0-.02,0-.03,0-.22-.04-.44-.1-.67-.16,0,0-.02,0-.03,0-.2-.05-.4-.11-.6-.17-.2-.06-.39-.12-.59-.19-.15-.05-.3-.11-.45-.17-.1-.04-.2-.08-.29-.12-.3-.12-.6-.26-.88-.4-.12-.06-.25-.12-.37-.19-.2-.1-.39-.22-.58-.33-.1-.05-.19-.11-.29-.18-.1-.06-.2-.12-.3-.19-.08-.05-.16-.1-.23-.16-.15-.1-.3-.21-.45-.32-.19-.13-.37-.28-.55-.43-.16-.13-.32-.27-.47-.4-.04-.04-.08-.08-.12-.11-.15-.14-.3-.28-.44-.42-.16-.16-.33-.33-.48-.5-.15-.15-.29-.31-.41-.47-.03-.03-.06-.06-.09-.1-.14-.16-.27-.33-.39-.5-.13-.17-.26-.35-.37-.53-.02-.02-.04-.05-.05-.07-.07-.11-.15-.22-.22-.34-.08-.13-.16-.26-.24-.39,0,0,0-.01-.01-.02-.11-.19-.21-.37-.32-.57,0-.01-.01-.03-.02-.04-.09-.17-.17-.34-.25-.51-.05-.11-.11-.22-.15-.34-.17-.36-.31-.74-.44-1.12-.06-.18-.12-.36-.18-.54-.07-.22-.13-.44-.18-.66-.05-.2-.1-.41-.14-.62-.03-.14-.05-.28-.07-.42-.02-.11-.04-.22-.06-.34-.03-.23-.06-.47-.09-.71,0-.09-.02-.19-.02-.28,0,.12,0,.24.02.35,0,.03,0,.07,0,.11.02.23.05.45.08.68.04.26.08.51.13.77.15.76.35,1.5.6,2.22.08.24.17.48.27.71.09.23.19.46.3.69.09.19.18.38.28.57.02.03.03.07.05.1.12.22.24.44.37.66.11.2.23.39.35.58.01.02.03.04.04.06.13.19.26.39.39.58.01.01.02.02.03.04.11.16.23.31.35.46.02.04.05.07.08.11.04.06.09.12.14.18.11.14.23.29.35.42.12.15.25.29.39.43.03.04.08.09.12.13.04.04.08.09.13.14.09.09.18.18.27.27.41.4.84.78,1.3,1.14.17.14.35.27.53.4.1.07.2.14.29.21.42.29.85.55,1.29.8.11.06.22.12.33.18,1.01.53,2.09.96,3.21,1.27.1.03.22.06.33.08.12.03.25.06.38.09.63.14,1.27.25,1.93.31.12.01.25.02.37.03.39.03.79.04,1.19.04Z"/>
          <path class="cls-31" d="m288,452.05c0,.25,0,.5-.02.75.01-.25.02-.5.02-.75Z"/>
          <path class="cls-12" d="m14.65,466.55h1.48c-8,0-14.5-6.5-14.5-14.5V106.95c0-8,6.5-14.5,14.5-14.5h-1.48c-.82,0-1.63.07-2.41.21-.17.02-.34.05-.5.09,0,0-.02,0-.03,0-.22.04-.44.1-.67.16,0,0-.02,0-.03,0-.2.05-.4.11-.6.17-.2.06-.39.12-.59.19-.15.05-.3.11-.45.17-.1.04-.2.08-.29.12-.3.12-.6.26-.88.4-.12.06-.25.12-.37.19-.2.1-.39.22-.58.33-.1.05-.19.11-.29.18-.1.06-.2.12-.3.19-.08.05-.16.1-.23.16-.15.1-.3.21-.45.32-.19.14-.37.28-.55.43-.16.13-.32.27-.47.4-.04.04-.08.08-.12.11-.15.14-.3.28-.44.42-.16.16-.33.33-.48.5-.14.15-.28.31-.41.47-.03.03-.06.06-.09.1-.13.16-.26.33-.39.5-.13.17-.26.35-.37.53-.02.02-.04.05-.05.07-.07.11-.15.22-.22.34-.08.13-.16.26-.24.39,0,0,0,.01-.01.02-.11.19-.21.37-.32.57,0,.01-.01.03-.02.04-.09.17-.17.34-.25.51-.05.11-.11.22-.15.34-.17.36-.31.74-.44,1.11-.06.18-.12.36-.18.54-.06.22-.13.44-.18.66-.05.2-.1.41-.14.62-.03.14-.05.28-.07.42-.02.11-.04.22-.06.34-.03.23-.06.47-.09.71,0,.09-.02.19-.02.28-.01.14-.02.29-.03.43-.01.25-.02.49-.02.75v345.1c0,.25,0,.5.02.74,0,.14.01.29.03.43,0,.09.01.19.02.28.02.24.05.47.09.71.01.11.03.23.06.34.02.14.04.28.07.42.04.21.09.42.14.62.05.22.12.44.18.66.05.18.11.36.18.54.13.38.27.75.44,1.12.04.11.1.23.15.34.08.17.16.35.25.51,0,.01.01.03.02.04.1.19.21.38.32.57,0,0,0,.02.01.02.08.13.16.27.24.39.07.11.14.23.22.34.01.02.03.05.05.07.12.18.25.36.37.53s.26.34.39.5c.02.04.05.07.09.1.13.16.27.32.41.47.15.17.32.34.48.5.14.14.29.29.44.42.04.03.08.07.12.11.15.13.31.27.47.4.18.15.36.29.55.43.15.11.3.22.45.32.07.06.15.11.23.16.09.06.19.13.3.19.09.06.19.12.29.18.19.11.38.23.58.33.12.06.24.13.37.19.29.14.58.28.88.4.09.04.19.08.29.12.15.06.3.11.45.17.19.07.39.13.59.19.2.06.4.12.6.17,0,0,.02,0,.03,0,.22.06.44.11.67.16.01,0,.02,0,.03,0,.17.03.34.07.5.09.78.14,1.59.21,2.41.21Z"/>
          <path class="cls-29" d="m272.02,466.55h1.48c.81,0,1.61-.07,2.39-.2.18-.02.36-.05.53-.09.24-.05.47-.1.7-.16.21-.05.42-.11.63-.18.21-.06.41-.13.61-.2.12-.04.25-.09.37-.14.12-.04.24-.09.36-.14.3-.13.59-.26.88-.4.12-.06.24-.12.37-.19.2-.1.39-.22.58-.33.1-.05.19-.11.29-.18.1-.06.2-.12.3-.19.08-.05.16-.1.23-.16.15-.1.3-.21.45-.32.19-.14.37-.28.55-.43.16-.13.32-.27.47-.4.04-.04.08-.08.12-.11.15-.14.3-.28.44-.42.13-.13.27-.27.4-.41.05-.05.11-.11.16-.18.11-.12.21-.24.32-.37.03-.04.07-.08.1-.12.13-.16.27-.33.39-.5.1-.13.2-.27.3-.41.07-.1.14-.2.2-.3.11-.17.22-.34.33-.52.08-.13.15-.26.22-.39.04-.06.08-.13.11-.2.07-.13.13-.26.2-.38.09-.17.17-.35.25-.52.06-.13.12-.26.17-.38.12-.29.23-.58.33-.88.05-.16.1-.32.15-.48.06-.19.11-.38.16-.58.06-.23.11-.46.16-.7.03-.14.05-.28.07-.42.02-.11.04-.22.06-.34.03-.23.06-.47.09-.71,0-.06.01-.13.02-.19.01-.17.02-.35.03-.52,0-.11,0-.22.01-.34,0-.14,0-.27,0-.41V106.95c0-.14,0-.27,0-.41,0-.11,0-.22-.01-.34,0-.17-.02-.35-.03-.52,0-.06-.01-.13-.02-.19-.02-.24-.05-.47-.09-.71-.01-.11-.03-.23-.06-.34-.02-.14-.04-.28-.07-.42,0,0,0-.01,0-.02-.03-.17-.07-.34-.11-.5-.01-.06-.03-.12-.04-.18,0-.02,0-.04-.02-.07-.04-.17-.09-.35-.14-.51-.05-.16-.1-.32-.15-.48,0-.02-.01-.03-.02-.05-.03-.09-.06-.18-.09-.26-.05-.14-.1-.28-.16-.42-.02-.05-.04-.09-.06-.14-.05-.13-.11-.26-.17-.38-.07-.18-.16-.36-.25-.52-.06-.13-.13-.26-.2-.38-.03-.07-.07-.14-.11-.2-.06-.12-.13-.24-.2-.36,0,0-.01-.02-.02-.03-.1-.18-.22-.35-.33-.52-.06-.1-.13-.2-.2-.3,0-.01-.02-.03-.03-.04-.09-.13-.18-.26-.27-.37-.12-.17-.26-.34-.39-.5-.03-.04-.07-.08-.1-.12-.1-.12-.21-.25-.32-.37-.05-.06-.1-.12-.16-.18,0,0-.02-.02-.02-.03-.13-.13-.25-.26-.37-.38s-.26-.26-.39-.38c-.01,0-.03-.02-.04-.04-.04-.03-.08-.07-.12-.11-.02-.01-.04-.03-.06-.05-.13-.12-.27-.23-.41-.35-.18-.15-.36-.29-.55-.43-.15-.11-.3-.22-.45-.32-.07-.06-.15-.11-.23-.16-.1-.06-.2-.13-.3-.19-.09-.06-.19-.12-.29-.18-.19-.11-.38-.23-.58-.33-.12-.06-.24-.13-.37-.19-.29-.14-.58-.28-.88-.4,0,0-.01,0-.02,0-.11-.04-.22-.09-.33-.13-.01,0-.02,0-.04-.01-.1-.04-.2-.08-.3-.11,0,0-.01,0-.02,0-.2-.07-.4-.14-.61-.2-.21-.06-.42-.12-.63-.18-.06-.02-.13-.03-.19-.05-.15-.04-.3-.07-.45-.1-.02,0-.03,0-.05,0-.05,0-.1-.02-.15-.03-.1-.02-.21-.04-.31-.05-.02,0-.04,0-.07,0-.17-.03-.34-.05-.51-.08-.06,0-.12-.01-.18-.02-.13-.02-.26-.03-.38-.04-.15-.01-.3-.02-.45-.03-.28-.02-.57-.03-.86-.03h-1.48c8,0,14.5,6.5,14.5,14.5v345.1c0,8-6.5,14.5-14.5,14.5Z"/>
        </g>
        <g>
          <g>
            <g>
              <g>
                <path class="cls-8" d="m320.87,271.99h-85.66c-8.84,0-16.01,7.17-16.01,16.01v205.46c0,8.84,7.17,16.01,16.01,16.01h85.66c8.84,0,16.01-7.17,16.01-16.01v-205.46c0-8.84-7.17-16.01-16.01-16.01Zm15.56,219.98c0,1.67-.26,3.27-.75,4.78-.04.12-.07.23-.12.34-.04.12-.08.23-.12.34-.03.09-.06.17-.1.26-.1.25-.21.5-.32.75-.05.11-.1.22-.15.33-.07.15-.15.3-.23.45-.05.1-.1.2-.16.3-.06.1-.12.21-.18.31-.17.29-.34.57-.53.84-.06.09-.12.18-.18.26-.07.1-.14.19-.21.29-.07.1-.14.19-.21.29-.07.1-.15.19-.22.28-.07.09-.15.18-.23.28-.15.18-.31.36-.48.53-.25.27-.51.53-.78.78-.08.07-.16.15-.24.22-.19.17-.38.33-.57.49-.08.07-.17.13-.26.2-.28.22-.57.43-.87.63-.1.07-.2.13-.3.2-.2.13-.41.25-.62.37-.1.06-.21.12-.31.17-.34.18-.68.36-1.03.51-.09.04-.18.08-.28.12-.11.05-.22.1-.33.14-.11.04-.23.09-.34.13-.25.1-.51.18-.77.26-.09.03-.18.06-.27.08-.34.1-.69.19-1.04.27-.12.03-.24.05-.37.08-.13.03-.26.05-.39.07-.24.04-.48.08-.73.11h0s-.1.01-.14.01c-.03,0-.07,0-.1,0-.01,0-.03,0-.04,0,.22-.02.44-.05.65-.09.11-.02.21-.04.32-.06.11-.02.21-.04.32-.06.32-.07.64-.15.95-.23.1-.03.21-.06.31-.09.21-.06.41-.13.61-.2.3-.11.6-.23.89-.36.1-.04.2-.08.29-.13.1-.04.19-.09.29-.14.19-.1.38-.19.56-.29.18-.1.37-.21.55-.32.16-.1.32-.21.48-.31.02,0,.03-.02.05-.03.26-.18.52-.36.77-.56.08-.06.17-.13.25-.2.23-.19.46-.38.68-.59.54-.5,1.05-1.04,1.5-1.62.07-.08.13-.17.19-.25.66-.87,1.22-1.82,1.66-2.83.07-.16.14-.33.2-.49.31-.8.56-1.63.73-2.5.03-.17.06-.34.09-.51.1-.7.16-1.41.16-2.13v-205.46c0-7.26-5.52-13.25-12.59-14-.12-.01-.25-.02-.38-.03-.13,0-.26-.02-.39-.02h0c-.24-.01-.48-.02-.72-.02h-85.66c-.24,0-.48,0-.72.02h0c-7.43.38-13.35,6.54-13.35,14.06v205.46c0,7.23,5.48,13.2,12.5,13.99-.1,0-.19-.02-.29-.03h0c-.25-.03-.49-.07-.73-.11-1.47-.25-2.87-.7-4.17-1.33-.09-.04-.18-.09-.27-.13-.23-.12-.46-.24-.69-.37-.1-.06-.2-.12-.31-.18-.51-.31-1-.65-1.47-1.01-.09-.07-.17-.13-.25-.2-.25-.2-.49-.41-.73-.62-.08-.07-.15-.14-.23-.22-.09-.08-.18-.17-.26-.25-.08-.09-.17-.17-.25-.26-.06-.06-.11-.11-.16-.17-.07-.07-.14-.15-.2-.22-.4-.45-.77-.91-1.11-1.4-.06-.09-.12-.18-.18-.26-.19-.27-.36-.55-.53-.84-.06-.1-.12-.21-.18-.31-.43-.77-.8-1.58-1.09-2.42-.04-.12-.08-.23-.12-.34-.19-.58-.34-1.18-.46-1.78-.02-.12-.05-.24-.07-.37-.15-.86-.22-1.74-.22-2.63v-203.97c0-.15,0-.31,0-.46,0-.12,0-.23.01-.34.01-.25.03-.5.06-.74.01-.13.03-.26.04-.38,0-.07.02-.13.03-.2,0-.08.02-.16.04-.24.02-.13.04-.26.06-.38.04-.22.08-.44.13-.66.02-.11.05-.22.08-.32.08-.32.17-.64.27-.95.03-.1.07-.2.1-.3.04-.12.08-.24.13-.36.04-.1.07-.2.11-.3.03-.08.06-.16.1-.24.04-.1.08-.2.12-.29.03-.07.06-.15.1-.22.05-.11.1-.21.15-.32.09-.18.18-.37.28-.55.05-.09.1-.18.15-.28.06-.11.12-.21.18-.32.43-.73.92-1.43,1.46-2.08.08-.09.15-.18.23-.28.09-.1.18-.21.27-.31.15-.17.31-.33.47-.49.17-.17.35-.34.53-.5.18-.16.36-.32.55-.48.09-.08.19-.15.28-.23.19-.15.38-.29.58-.44.2-.14.4-.28.6-.41.21-.13.41-.26.62-.38.1-.06.21-.12.32-.18.11-.06.21-.12.32-.17.11-.06.22-.11.33-.17.11-.05.22-.11.33-.16.22-.1.45-.2.67-.29.11-.04.22-.09.33-.13,0,0,.02,0,.03-.01.11-.04.22-.08.33-.12.11-.04.22-.07.33-.11.12-.04.25-.08.38-.12.12-.04.24-.07.36-.1.12-.03.24-.07.36-.1.12-.03.24-.06.37-.09.25-.06.49-.1.74-.15.12-.02.25-.04.37-.06.27-.04.54-.07.81-.1.21-.02.43-.04.65-.05.13,0,.26-.01.4-.01.13,0,.27,0,.4,0h85.66c.13,0,.27,0,.4,0,.11,0,.22,0,.33.01.25.01.5.03.75.05h0c.13.01.25.03.38.04.13.01.25.03.38.05.12.02.25.04.37.06.12.02.25.04.37.07,0,0,0,0,0,0,.12.02.24.05.37.08.11.02.22.05.33.07.03,0,.05.01.07.02.1.03.21.05.31.08.15.04.29.08.43.12.1.03.2.06.29.09.22.07.43.15.64.23.15.05.29.11.43.17.1.04.21.09.31.13.11.05.22.1.34.15.11.05.22.1.33.16.78.38,1.53.83,2.23,1.34.09.06.17.12.26.19.31.23.61.47.89.73.13.11.25.22.37.34.5.47.97.97,1.4,1.49.08.1.15.19.23.28.16.2.31.4.45.6.07.1.15.21.21.31.12.18.24.36.35.54.06.09.11.18.17.28.1.18.2.35.3.53.05.09.1.17.14.26.16.3.3.6.44.92.03.08.07.16.1.24.13.31.25.62.35.94.04.12.08.23.12.35.21.68.38,1.38.5,2.1.01.07.02.15.04.23.02.12.04.25.05.37.01.13.03.25.04.38.01.13.02.26.04.38.01.23.03.47.03.71,0,.15,0,.3,0,.45v203.97Z"/>
                <g>
                  <path class="cls-30" d="m233.72,507.45c-.12-.01-.25-.02-.37-.04h0c-.25-.03-.49-.07-.73-.11-1.47-.25-2.87-.7-4.17-1.33-.09-.04-.18-.09-.27-.13-.23-.12-.46-.24-.69-.37-.1-.06-.2-.12-.31-.18-.51-.31-1-.65-1.47-1.01-.09-.07-.17-.13-.25-.2-.25-.2-.49-.41-.73-.62-.08-.07-.15-.14-.23-.22-.09-.08-.18-.17-.26-.25-.08-.09-.17-.17-.25-.26-.06-.06-.11-.11-.16-.17-.07-.07-.14-.15-.2-.22-.4-.45-.77-.91-1.11-1.4-.06-.09-.12-.18-.18-.26-.19-.27-.36-.55-.53-.84-.06-.1-.12-.21-.18-.31-.43-.77-.8-1.58-1.09-2.42-.04-.12-.08-.23-.12-.34-.19-.58-.34-1.18-.46-1.78-.02-.12-.05-.24-.07-.37-.15-.86-.22-1.74-.22-2.63v-202.48c0-8.34,6.59-15.16,14.83-15.54-7.43.38-13.35,6.54-13.35,14.06v205.46c0,7.26,5.52,13.25,12.58,14Z"/>
                  <path class="cls-9" d="m336.43,289.48v202.48c0,1.67-.26,3.27-.75,4.78-.04.12-.07.23-.12.34-.04.12-.08.23-.12.34-.03.09-.06.17-.1.26-.1.25-.21.5-.32.75-.05.11-.1.22-.15.33-.07.15-.15.3-.23.45-.05.1-.1.2-.16.3-.06.1-.12.21-.18.31-.17.29-.34.57-.53.84-.06.09-.12.18-.18.26-.07.1-.14.19-.21.29-.07.1-.14.19-.21.29-.07.1-.15.19-.22.28s-.15.18-.23.28c-.15.18-.31.36-.48.53-.25.27-.51.53-.78.78-.08.07-.16.15-.24.22-.19.17-.38.33-.57.49-.08.07-.17.13-.26.2-.28.22-.57.43-.87.63-.1.07-.2.13-.3.2-.2.13-.41.25-.62.37-.1.06-.21.12-.31.17-.34.18-.68.36-1.03.51-.09.04-.18.08-.28.12-.11.05-.22.1-.33.14-.11.04-.23.09-.34.13-.25.1-.51.18-.77.26-.09.03-.18.06-.27.08-.34.1-.69.19-1.04.27-.12.03-.24.05-.37.08-.13.03-.26.05-.39.07-.24.04-.49.08-.73.11h0c-.12.01-.25.03-.37.04,7.06-.75,12.59-6.74,12.59-14v-205.46c0-7.39-5.72-13.46-12.97-14.04,8.07.57,14.45,7.31,14.45,15.52Z"/>
                  <path class="cls-6" d="m336.43,491.97v1.49c0,8.58-6.98,15.56-15.56,15.56h-85.66c-8.58,0-15.57-6.98-15.57-15.56v-1.49c0,.9.08,1.78.22,2.63.02.12.04.24.07.37.12.61.27,1.2.46,1.78.04.12.07.23.12.34.29.84.66,1.65,1.09,2.42.06.1.12.21.18.31.17.29.34.56.53.84.06.09.12.18.18.26.34.49.72.95,1.11,1.4.07.07.13.15.2.22.05.06.11.12.16.17.08.09.17.17.25.26.09.09.17.17.26.25.07.07.15.15.23.22.23.21.48.42.73.62.08.07.17.13.25.2.47.37.96.7,1.47,1.01.1.06.2.12.31.18.23.13.45.25.69.37.09.04.18.09.27.13,1.3.63,2.7,1.08,4.17,1.33.24.04.48.08.73.11h0c.25.03.5.05.75.07.13,0,.26.02.39.02.24.01.48.02.73.02h85.66c.24,0,.48,0,.73-.02.13,0,.26-.01.39-.02.21-.01.41-.03.61-.06.05,0,.1,0,.14-.01h0c.25-.03.49-.07.73-.11.13-.02.26-.04.39-.07.12-.02.25-.05.37-.08.35-.08.7-.17,1.04-.27.09-.03.18-.05.27-.08.26-.08.51-.17.77-.26.11-.04.23-.09.34-.13.11-.04.22-.09.33-.14.09-.04.18-.08.28-.12.35-.15.69-.33,1.03-.51.1-.05.21-.11.31-.17.21-.12.41-.24.62-.37.1-.06.2-.13.3-.2.3-.2.59-.41.87-.63.09-.07.17-.13.26-.2.19-.16.38-.32.57-.49.08-.07.16-.15.24-.22.27-.25.53-.51.78-.78.16-.17.32-.35.48-.53.08-.09.16-.18.23-.28.08-.09.15-.18.22-.28.07-.1.15-.19.21-.29.07-.1.14-.19.21-.29.06-.09.12-.18.18-.26.19-.28.37-.56.53-.84.06-.1.12-.21.18-.31.06-.1.11-.2.16-.3.08-.15.15-.3.23-.45.05-.11.11-.22.15-.33.11-.25.22-.5.32-.75.04-.08.07-.17.1-.26.04-.11.09-.23.12-.34.04-.11.08-.23.12-.34.49-1.51.75-3.11.75-4.78Z"/>
                </g>
                <path class="cls-15" d="m336.43,287.99v1.49c0-8.08-6.19-14.74-14.07-15.49-.12-.01-.25-.02-.38-.03-.13,0-.26-.02-.39-.02h0c-.24-.01-.48-.02-.72-.02h-85.66c-.24,0-.48,0-.72.02h0c-8.24.38-14.83,7.21-14.83,15.54v-1.49c0-.15,0-.31,0-.46,0-.12,0-.23.01-.34.01-.25.03-.5.06-.74.01-.13.03-.26.04-.38,0-.07.02-.13.03-.2,0-.08.02-.16.04-.24.02-.13.04-.26.06-.38.04-.22.08-.44.13-.66.02-.11.05-.22.08-.32.08-.32.17-.64.27-.95.03-.1.07-.2.1-.3.04-.12.08-.24.13-.36.04-.1.07-.2.11-.3.03-.08.06-.16.1-.24.04-.1.08-.2.12-.29.03-.07.06-.15.1-.22.05-.11.1-.21.15-.32.09-.18.18-.37.28-.55.05-.09.1-.18.15-.28.06-.11.12-.21.18-.32.43-.73.92-1.43,1.46-2.08.08-.09.15-.18.23-.28.09-.1.18-.21.27-.31.15-.17.31-.33.47-.49.17-.17.35-.34.53-.5.18-.16.36-.32.55-.48.09-.08.19-.15.28-.23.19-.15.38-.29.58-.44.2-.14.4-.28.6-.41.21-.13.41-.26.62-.38.1-.06.21-.12.32-.18.11-.06.21-.12.32-.17.11-.06.22-.11.33-.17.11-.05.22-.11.33-.16.22-.1.45-.2.67-.29.11-.04.22-.09.33-.13,0,0,.02,0,.03-.01.11-.04.22-.08.33-.12.11-.04.22-.07.33-.11.12-.04.25-.08.38-.12.12-.04.24-.07.36-.1.12-.03.24-.07.36-.1.12-.03.24-.06.37-.09.25-.06.49-.1.74-.15.12-.02.25-.04.37-.06.27-.04.54-.07.81-.1.21-.02.43-.04.65-.05.13,0,.26-.01.4-.01.13,0,.27,0,.4,0h85.66c.13,0,.27,0,.4,0,.11,0,.22,0,.33.01.25.01.5.03.75.05h0c.13.01.25.03.38.04.13.01.25.03.38.05.12.02.25.04.37.06.12.02.25.04.37.07,0,0,0,0,0,0,.12.02.24.05.37.08.11.02.22.05.33.07.03,0,.05.01.07.02.1.03.21.05.31.08.15.04.29.08.43.12.1.03.2.06.29.09.22.07.43.15.64.23.15.05.29.11.43.17.1.04.21.09.31.13.11.05.22.1.34.15.11.05.22.1.33.16.78.38,1.53.83,2.23,1.34.09.06.17.12.26.19.31.23.61.47.89.73.13.11.25.22.37.34.5.47.97.97,1.4,1.49.08.1.15.19.23.28.16.2.31.4.45.6.07.1.15.21.21.31.12.18.24.36.35.54.06.09.11.18.17.28.1.18.2.35.3.53.05.09.1.17.14.26.16.3.3.6.44.92.03.08.07.16.1.24.13.31.25.62.35.94.04.12.08.23.12.35.21.68.38,1.38.5,2.1.01.07.02.15.04.23.02.12.04.25.05.37.01.13.03.25.04.38.01.13.02.26.04.38.01.23.03.47.03.71,0,.15,0,.3,0,.45Z"/>
              </g>
              <path d="m321.6,273.94h0c-.24-.01-.48-.02-.72-.02h-85.66c-.24,0-.48,0-.72.02h0c-7.43.38-13.35,6.54-13.35,14.06v205.46c0,7.39,5.72,13.46,12.96,14.04.13,0,.26.02.39.02.24.01.48.02.73.02h85.66c.24,0,.48,0,.73-.02.13,0,.26-.01.39-.02,7.24-.57,12.97-6.65,12.97-14.04v-205.46c0-7.52-5.93-13.68-13.35-14.06Zm12.16,219.52c0,6.68-5.22,12.33-11.86,12.85-.12,0-.24.02-.36.02-.22.01-.44.02-.67.02h-85.66c-.23,0-.45,0-.67-.02-.12,0-.24-.01-.35-.02-6.65-.52-11.87-6.17-11.87-12.85v-205.46c0-6.85,5.35-12.5,12.19-12.87h.04c.22-.01.44-.02.66-.02h85.66c.22,0,.45,0,.66.01h.02c6.85.36,12.2,6.01,12.2,12.87v205.46Z"/>
              <path class="cls-4" d="m333.76,288.08v205.46c0,1.27-.19,2.51-.54,3.68-.28.93-.67,1.82-1.14,2.66-.1.17-.2.34-.31.51-.16.25-.33.49-.5.73-.49.67-1.05,1.29-1.66,1.86,1.13-1.97,1.77-4.25,1.77-6.66v-2.37c0-.14,0-.28,0-.42v-205.46c0-.15,0-.29,0-.43v-2.32c0-2.44-.64-4.74-1.77-6.71,2.56,2.36,4.15,5.74,4.15,9.48Z"/>
              <g>
                <path d="m321.49,276.31h-.05c-.19-.01-.38-.02-.57-.02h-85.66c-.19,0-.39,0-.58.01h-.06s-.03,0-.03,0c-6.19.35-11.04,5.47-11.04,11.68v205.46c0,6.07,4.73,11.19,10.77,11.66.09,0,.19.01.28.02h.03c.2.01.41.02.61.02h85.66c.2,0,.4,0,.6-.02h.04c.1,0,.2-.01.3-.02,6.04-.48,10.76-5.6,10.76-11.66v-205.46c0-6.23-4.87-11.36-11.08-11.68Zm7.96,217.14c0,4.45-3.47,8.21-7.89,8.55-.04,0-.08,0-.13,0h-.03s-.03,0-.03,0h-.04s-.02,0-.02,0h-.02c-.14,0-.29.01-.43.01h-85.66c-.15,0-.3,0-.45-.01h-.02s-.02,0-.02,0h-.03s-.02,0-.02,0h-.03s-.07,0-.12,0c-4.43-.35-7.9-4.11-7.9-8.55v-205.46c0-4.52,3.51-8.27,8.01-8.56h.19c.14-.02.26-.02.38-.02h85.66c.12,0,.24,0,.39,0h.03s.04,0,.04,0c4.55.24,8.12,4,8.12,8.57v205.46Z"/>
                <path d="m307.16,279.42v1.12c0,3.77-3.06,6.83-6.83,6.83h-44.59c-3.77,0-6.83-3.06-6.83-6.83v-1.12h58.24Z"/>
              </g>
              <path d="m307.16,279.42v1.12c0,3.77-3.06,6.83-6.83,6.83h-44.59c-3.77,0-6.83-3.06-6.83-6.83v-1.12h58.24Z"/>
              <g>
                <path class="cls-7" d="m331.38,493.94v2.37c0,2.41-.64,4.7-1.77,6.66-2.06,1.91-4.74,3.16-7.7,3.39-.12,0-.24.02-.36.02-.22.01-.44.02-.67.02h-85.66c-.23,0-.45,0-.67-.02-.12,0-.24-.01-.35-.02-.16-.01-.33-.03-.49-.05-2.77-.32-5.27-1.54-7.21-3.34-1.14-1.97-1.79-4.26-1.79-6.69v-2.77c0,3.16,1.44,6.05,3.7,7.98,1.63,1.4,3.7,2.31,5.98,2.49.07,0,.15.01.22.01h.03s.03,0,.03,0c.18,0,.37.01.55.01h85.66c.18,0,.36,0,.54-.01h.07c.08,0,.16-.01.24-.02,5.27-.41,9.44-4.79,9.65-10.05Z"/>
                <path class="cls-25" d="m333.76,288.08v-.02c0-6.86-5.35-12.51-12.2-12.87h-.02c-.22-.01-.44-.02-.66-.02h-85.66c-.22,0-.45,0-.66.01h-.03s0,0,0,0c-.28.01-.55.04-.83.07-2.78.33-5.27,1.53-7.22,3.32-1.13,1.97-1.77,4.26-1.77,6.71v2.77c0-3.19,1.43-6.07,3.69-8,1.68-1.44,3.82-2.35,6.19-2.49h.13c.18-.01.34-.02.5-.02h85.66c.14,0,.29,0,.45,0h.11c5.44.29,9.72,4.67,9.94,10.07v-2.32c0-2.44-.64-4.74-1.77-6.71,2.56,2.36,4.15,5.74,4.15,9.48Z"/>
                <path class="cls-10" d="m226.49,502.91c-2.56-2.37-4.16-5.76-4.16-9.46v-205.46c0-3.74,1.59-7.12,4.15-9.48-1.13,1.97-1.77,4.26-1.77,6.71v211c0,2.42.65,4.71,1.79,6.69Z"/>
                <path class="cls-16" d="m333.76,288.08v205.46c0,1.27-.19,2.51-.54,3.68-.28.93-.67,1.82-1.14,2.66-.1.17-.2.34-.31.51-.15.25-.32.49-.5.73-.49.68-1.05,1.31-1.67,1.88,0,0,0-.01.01-.02,1.13-1.97,1.77-4.25,1.77-6.66v-211c0-2.44-.64-4.74-1.77-6.71,2.56,2.36,4.15,5.74,4.15,9.48Z"/>
              </g>
            </g>
            <rect class="cls-22" x="270.85" y="280.34" width="13.67" height="1.44" rx=".29" ry=".29"/>
          </g>
          <path class="cls-18" d="m321.44,279.42h-.19c-.14-.02-.26-.02-.38-.02h-12.36c-.71.04-1.28.58-1.35,1.28,0,.05,0,.1,0,.15v.02c-.17,3.62-3.16,6.51-6.82,6.51h-44.59c-3.66,0-6.65-2.88-6.82-6.51v-.02c0-.05,0-.1,0-.15-.07-.7-.64-1.25-1.35-1.28h-12.36c-.12,0-.24,0-.38,0h-.12s-.08.01-.08.01c-4.5.29-8.01,4.04-8.01,8.56v205.47c0,4.45,3.47,8.21,7.9,8.55.04,0,.08,0,.12,0h.05s.05,0,.05,0h.02c.15,0,.3.01.45.01h85.66c.15,0,.3,0,.45-.01h.02s.05,0,.05,0h.02s.03,0,.03,0c.04,0,.07,0,.12,0,4.43-.35,7.9-4.11,7.9-8.55v-205.47c0-4.52-3.51-8.27-8.01-8.56Z"/>
        </g>
      </g>
    </g>
  </g>
</svg>