<?xml version="1.0" encoding="UTF-8"?>
<svg xmlns="http://www.w3.org/2000/svg" xmlns:xlink="http://www.w3.org/1999/xlink" viewBox="0 0 437.1 437.1">
  <defs>
    <style>
      .cls-1 {
        fill: url(#radial-gradient-3);
      }

      .cls-1, .cls-2, .cls-3, .cls-4, .cls-5, .cls-6 {
        mix-blend-mode: screen;
      }

      .cls-1, .cls-3 {
        opacity: .5;
      }

      .cls-7 {
        fill: #6fc;
      }

      .cls-8 {
        fill: url(#linear-gradient-2);
      }

      .cls-9 {
        fill: url(#linear-gradient-17);
      }

      .cls-10 {
        fill: #e1f2fe;
      }

      .cls-11 {
        fill: url(#linear-gradient-11);
      }

      .cls-11, .cls-12 {
        mix-blend-mode: multiply;
      }

      .cls-13 {
        fill: url(#linear-gradient-15);
      }

      .cls-14 {
        fill: url(#linear-gradient-18);
      }

      .cls-2 {
        fill: url(#linear-gradient-19);
      }

      .cls-15 {
        fill: url(#linear-gradient-14);
      }

      .cls-16 {
        fill: url(#linear-gradient-6);
      }

      .cls-17 {
        fill: url(#radial-gradient-5);
      }

      .cls-18 {
        fill: url(#radial-gradient-4);
      }

      .cls-19 {
        isolation: isolate;
      }

      .cls-3 {
        fill: url(#radial-gradient-6);
      }

      .cls-20 {
        fill: url(#linear-gradient-10);
      }

      .cls-21 {
        fill: url(#radial-gradient);
      }

      .cls-4 {
        fill: url(#linear-gradient-8);
      }

      .cls-22 {
        fill: url(#linear-gradient-16);
      }

      .cls-23 {
        fill: url(#linear-gradient-21);
      }

      .cls-24 {
        fill: url(#linear-gradient-5);
      }

      .cls-25 {
        fill: url(#radial-gradient-2);
      }

      .cls-26 {
        fill: #eef2d6;
      }

      .cls-27 {
        fill: url(#linear-gradient-24);
      }

      .cls-28 {
        fill: url(#linear-gradient-9);
      }

      .cls-29 {
        fill: url(#linear-gradient-22);
      }

      .cls-30 {
        fill: url(#linear-gradient-3);
      }

      .cls-31 {
        fill: url(#linear-gradient);
      }

      .cls-12 {
        fill: url(#linear-gradient-23);
      }

      .cls-5 {
        fill: url(#linear-gradient-7);
      }

      .cls-32 {
        fill: url(#linear-gradient-4);
      }

      .cls-6 {
        fill: url(#linear-gradient-20);
      }

      .cls-33 {
        fill: url(#linear-gradient-12);
      }

      .cls-34 {
        fill: url(#linear-gradient-13);
      }
    </style>
    <linearGradient id="linear-gradient" x1="340.36" y1="154.24" x2="340.36" y2="191.64" gradientTransform="translate(680.71 345.49) rotate(-180)" gradientUnits="userSpaceOnUse">
      <stop offset="0" stop-color="#231f20"/>
      <stop offset=".02" stop-color="#272324"/>
      <stop offset=".31" stop-color="#666669"/>
      <stop offset=".45" stop-color="#808184"/>
      <stop offset=".56" stop-color="#737376"/>
      <stop offset=".76" stop-color="#525153"/>
      <stop offset="1" stop-color="#231f20"/>
    </linearGradient>
    <linearGradient id="linear-gradient-2" x1="189.34" y1="124.86" x2="189.34" y2="137.44" gradientTransform="matrix(1,0,0,1,0,0)" xlink:href="#linear-gradient"/>
    <linearGradient id="linear-gradient-3" x1="189.34" y1="146.19" x2="189.34" y2="169.61" gradientTransform="matrix(1,0,0,1,0,0)" xlink:href="#linear-gradient"/>
    <linearGradient id="linear-gradient-4" x1="189.34" y1="175.11" x2="189.34" y2="199.04" gradientTransform="matrix(1,0,0,1,0,0)" xlink:href="#linear-gradient"/>
    <linearGradient id="linear-gradient-5" x1="189.55" y1="237.86" x2="340.36" y2="237.86" gradientTransform="matrix(1,0,0,1,0,0)" xlink:href="#linear-gradient"/>
    <linearGradient id="linear-gradient-6" x1="264.95" y1="386.52" x2="264.95" y2="88.53" gradientTransform="translate(27.1 502.81) rotate(-90)" gradientUnits="userSpaceOnUse">
      <stop offset="0" stop-color="#4d4d4d"/>
      <stop offset="1" stop-color="#000"/>
    </linearGradient>
    <linearGradient id="linear-gradient-7" x1="334.75" y1="237.86" x2="338.06" y2="237.86" gradientUnits="userSpaceOnUse">
      <stop offset="0" stop-color="#000" stop-opacity="0"/>
      <stop offset=".2" stop-color="#3d3d3d" stop-opacity=".24"/>
      <stop offset=".49" stop-color="#8f8f8f" stop-opacity=".56"/>
      <stop offset=".73" stop-color="#cbcbcb" stop-opacity=".8"/>
      <stop offset=".91" stop-color="#f0f0f0" stop-opacity=".94"/>
      <stop offset="1" stop-color="#fff"/>
    </linearGradient>
    <linearGradient id="linear-gradient-8" x1="8128.84" x2="8132.15" gradientTransform="translate(8324) rotate(-180) scale(1 -1)" xlink:href="#linear-gradient-7"/>
    <linearGradient id="linear-gradient-9" x1="264.95" y1="96.48" x2="264.95" y2="94.1" gradientUnits="userSpaceOnUse">
      <stop offset="0" stop-color="#4d4d4d"/>
      <stop offset=".07" stop-color="#434343"/>
      <stop offset=".31" stop-color="#252525"/>
      <stop offset=".55" stop-color="#101010"/>
      <stop offset=".78" stop-color="#040404"/>
      <stop offset="1" stop-color="#000"/>
    </linearGradient>
    <linearGradient id="linear-gradient-10" x1="283.69" y1="97.86" x2="279.39" y2="93.56" gradientTransform="matrix(1,0,0,1,0,0)" xlink:href="#linear-gradient-6"/>
    <linearGradient id="linear-gradient-11" x1="283.28" y1="97.45" x2="279.76" y2="93.93" gradientUnits="userSpaceOnUse">
      <stop offset="0" stop-color="#000"/>
      <stop offset="1" stop-color="#4d4d4d"/>
    </linearGradient>
    <linearGradient id="linear-gradient-12" x1="279.94" y1="94.11" x2="283.17" y2="97.33" gradientUnits="userSpaceOnUse">
      <stop offset="0" stop-color="#0058ee"/>
      <stop offset=".69" stop-color="#000" stop-opacity="0"/>
    </linearGradient>
    <radialGradient id="radial-gradient" cx="281.59" cy="97.6" fx="281.59" fy="97.6" r="2.01" gradientUnits="userSpaceOnUse">
      <stop offset="0" stop-color="#0058ee"/>
      <stop offset=".86" stop-color="#000" stop-opacity="0"/>
    </radialGradient>
    <radialGradient id="radial-gradient-2" cx="283.33" cy="94.96" fx="283.33" fy="94.96" r="1.32" gradientUnits="userSpaceOnUse">
      <stop offset="0" stop-color="#0058ee"/>
      <stop offset=".7" stop-color="#000" stop-opacity="0"/>
    </radialGradient>
    <radialGradient id="radial-gradient-3" cx="280.19" cy="96.27" fx="280.19" fy="96.27" r="2.01" gradientUnits="userSpaceOnUse">
      <stop offset="0" stop-color="#fff"/>
      <stop offset=".15" stop-color="#bdbdbd" stop-opacity=".74"/>
      <stop offset=".29" stop-color="#838383" stop-opacity=".52"/>
      <stop offset=".43" stop-color="#545454" stop-opacity=".33"/>
      <stop offset=".57" stop-color="#2f2f2f" stop-opacity=".19"/>
      <stop offset=".69" stop-color="#151515" stop-opacity=".08"/>
      <stop offset=".8" stop-color="#050505" stop-opacity=".02"/>
      <stop offset=".89" stop-color="#000" stop-opacity="0"/>
    </radialGradient>
    <linearGradient id="linear-gradient-13" x1="247.76" y1="115.63" x2="247.76" y2="153.03" gradientTransform="translate(495.51 268.27) rotate(-180)" xlink:href="#linear-gradient"/>
    <linearGradient id="linear-gradient-14" x1="96.74" y1="86.25" x2="96.74" y2="98.83" gradientTransform="matrix(1,0,0,1,0,0)" xlink:href="#linear-gradient"/>
    <linearGradient id="linear-gradient-15" x1="96.74" y1="107.58" x2="96.74" y2="131" gradientTransform="matrix(1,0,0,1,0,0)" xlink:href="#linear-gradient"/>
    <linearGradient id="linear-gradient-16" x1="96.74" y1="136.5" x2="96.74" y2="160.43" gradientTransform="matrix(1,0,0,1,0,0)" xlink:href="#linear-gradient"/>
    <linearGradient id="linear-gradient-17" x1="96.95" y1="199.24" x2="247.76" y2="199.24" gradientTransform="matrix(1,0,0,1,0,0)" xlink:href="#linear-gradient"/>
    <linearGradient id="linear-gradient-18" x1="172.35" y1="347.91" x2="172.35" y2="49.92" gradientTransform="translate(-26.89 371.6) rotate(-90)" xlink:href="#linear-gradient-6"/>
    <linearGradient id="linear-gradient-19" x1="242.15" y1="199.24" x2="245.46" y2="199.24" xlink:href="#linear-gradient-7"/>
    <linearGradient id="linear-gradient-20" x1="8221.44" y1="199.24" x2="8224.75" y2="199.24" gradientTransform="translate(8324) rotate(-180) scale(1 -1)" xlink:href="#linear-gradient-7"/>
    <linearGradient id="linear-gradient-21" x1="172.35" y1="57.87" x2="172.35" y2="55.49" xlink:href="#linear-gradient-9"/>
    <linearGradient id="linear-gradient-22" x1="191.09" y1="59.25" x2="186.79" y2="54.95" gradientTransform="matrix(1,0,0,1,0,0)" xlink:href="#linear-gradient-6"/>
    <linearGradient id="linear-gradient-23" x1="190.68" y1="58.84" x2="187.16" y2="55.32" xlink:href="#linear-gradient-11"/>
    <linearGradient id="linear-gradient-24" x1="187.34" y1="55.5" x2="190.57" y2="58.72" xlink:href="#linear-gradient-12"/>
    <radialGradient id="radial-gradient-4" cx="188.99" cy="58.99" fx="188.99" fy="58.99" r="2.01" xlink:href="#radial-gradient"/>
    <radialGradient id="radial-gradient-5" cx="190.73" cy="56.35" fx="190.73" fy="56.35" r="1.32" xlink:href="#radial-gradient-2"/>
    <radialGradient id="radial-gradient-6" cx="187.59" cy="57.66" fx="187.59" fy="57.66" xlink:href="#radial-gradient-3"/>
  </defs>
  <g class="cls-19">
    <g id="Layer_2" data-name="Layer 2">
      <g id="OBJECTS">
        <g>
          <circle class="cls-10" cx="218.55" cy="218.55" r="218.55"/>
          <g>
            <g>
              <path class="cls-31" d="m340.74,154.04h1.21v37.4h-1.21c-1.09,0-1.97-.88-1.97-1.97v-33.46c0-1.09.88-1.97,1.97-1.97Z" transform="translate(680.71 345.49) rotate(180)"/>
              <path class="cls-8" d="m189.72,124.93h1.21v12.53h-1.21c-1.09,0-1.97-.88-1.97-1.97v-8.59c0-1.09.88-1.97,1.97-1.97Z"/>
              <path class="cls-30" d="m189.72,146.04h1.21v23.62h-1.21c-1.09,0-1.97-.88-1.97-1.97v-19.67c0-1.09.88-1.97,1.97-1.97Z"/>
              <path class="cls-32" d="m189.72,175.11h1.21v23.62h-1.21c-1.09,0-1.97-.88-1.97-1.97v-19.67c0-1.09.88-1.97,1.97-1.97Z"/>
              <rect class="cls-24" x="189.55" y="84.14" width="150.8" height="307.42" rx="28.22" ry="28.22"/>
              <path d="m138.41,165.35h253.08c13.4,0,24.28,10.88,24.28,24.28v96.46c0,13.4-10.88,24.28-24.28,24.28h-253.08c-13.4,0-24.28-10.88-24.28-24.28v-96.46c0-13.4,10.88-24.28,24.28-24.28Z" transform="translate(502.81 -27.1) rotate(90)"/>
              <rect class="cls-16" x="117.03" y="168.24" width="295.86" height="139.24" rx="20.34" ry="20.34" transform="translate(502.81 -27.1) rotate(90)"/>
              <rect class="cls-7" x="118.18" y="169.39" width="293.54" height="136.92" rx="18.76" ry="18.76" transform="translate(502.81 -27.1) rotate(90)"/>
              <path class="cls-5" d="m335.33,372.31V103.4c0-5.66-2.64-10.69-6.75-13.95,5.31,3.09,8.88,8.83,8.88,15.4v266.02c0,6.57-3.58,12.31-8.88,15.4,4.11-3.26,6.75-8.3,6.75-13.95Z"/>
              <path class="cls-4" d="m194.58,372.31V103.4c0-5.66,2.64-10.69,6.75-13.95-5.31,3.09-8.88,8.83-8.88,15.4v266.02c0,6.57,3.58,12.31,8.88,15.4-4.11-3.26-6.75-8.3-6.75-13.95Z"/>
              <path d="m224.97,90.33c.93.62,2.51,2.02,2.78,4.43.39,3.47,1.74,7.71,7.42,7.71h59.57c5.69,0,7.04-4.24,7.42-7.71.27-2.42,1.84-3.81,2.78-4.43h-79.97Z"/>
              <rect class="cls-28" x="255.45" y="94.14" width="19.01" height="2.27" rx="1.13" ry="1.13"/>
              <g>
                <circle cx="281.42" cy="95.59" r="2.01"/>
                <circle class="cls-20" cx="281.42" cy="95.59" r="2.89"/>
                <circle class="cls-11" cx="281.42" cy="95.59" r="2.37"/>
                <circle class="cls-33" cx="281.42" cy="95.59" r="2.01"/>
                <circle class="cls-21" cx="281.42" cy="95.59" r="2.01"/>
                <circle class="cls-25" cx="281.42" cy="95.59" r="2.01"/>
                <circle class="cls-1" cx="281.42" cy="95.59" r="2.01"/>
              </g>
            </g>
            <g>
              <path class="cls-34" d="m248.14,115.43h1.21v37.4h-1.21c-1.09,0-1.97-.88-1.97-1.97v-33.46c0-1.09.88-1.97,1.97-1.97Z" transform="translate(495.51 268.27) rotate(180)"/>
              <path class="cls-15" d="m97.12,86.32h1.21v12.53h-1.21c-1.09,0-1.97-.88-1.97-1.97v-8.59c0-1.09.88-1.97,1.97-1.97Z"/>
              <path class="cls-13" d="m97.12,107.43h1.21v23.62h-1.21c-1.09,0-1.97-.88-1.97-1.97v-19.67c0-1.09.88-1.97,1.97-1.97Z"/>
              <path class="cls-22" d="m97.12,136.5h1.21v23.62h-1.21c-1.09,0-1.97-.88-1.97-1.97v-19.67c0-1.09.88-1.97,1.97-1.97Z"/>
              <rect class="cls-9" x="96.95" y="45.53" width="150.8" height="307.42" rx="28.22" ry="28.22"/>
              <path d="m45.81,126.73h253.08c13.4,0,24.28,10.88,24.28,24.28v96.46c0,13.4-10.88,24.28-24.28,24.28H45.81c-13.4,0-24.28-10.88-24.28-24.28v-96.46c0-13.4,10.88-24.28,24.28-24.28Z" transform="translate(371.6 26.89) rotate(90)"/>
              <rect class="cls-14" x="24.43" y="129.63" width="295.86" height="139.24" rx="20.34" ry="20.34" transform="translate(371.6 26.89) rotate(90)"/>
              <rect class="cls-26" x="25.58" y="130.78" width="293.54" height="136.92" rx="18.76" ry="18.76" transform="translate(371.6 26.89) rotate(90)"/>
              <path class="cls-2" d="m242.73,333.7V64.79c0-5.66-2.64-10.69-6.75-13.95,5.31,3.09,8.88,8.83,8.88,15.4v266.02c0,6.57-3.58,12.31-8.88,15.4,4.11-3.26,6.75-8.3,6.75-13.95Z"/>
              <path class="cls-6" d="m101.98,333.7V64.79c0-5.66,2.64-10.69,6.75-13.95-5.31,3.09-8.88,8.83-8.88,15.4v266.02c0,6.57,3.58,12.31,8.88,15.4-4.11-3.26-6.75-8.3-6.75-13.95Z"/>
              <path d="m132.37,51.72c.93.62,2.51,2.02,2.78,4.43.39,3.47,1.74,7.71,7.42,7.71h59.57c5.69,0,7.04-4.24,7.42-7.71.27-2.42,1.84-3.81,2.78-4.43h-79.97Z"/>
              <rect class="cls-23" x="162.85" y="55.52" width="19.01" height="2.27" rx="1.13" ry="1.13"/>
              <g>
                <circle cx="188.82" cy="56.98" r="2.01"/>
                <circle class="cls-29" cx="188.82" cy="56.98" r="2.89"/>
                <circle class="cls-12" cx="188.82" cy="56.98" r="2.37"/>
                <circle class="cls-27" cx="188.82" cy="56.98" r="2.01"/>
                <circle class="cls-18" cx="188.82" cy="56.98" r="2.01"/>
                <circle class="cls-17" cx="188.82" cy="56.98" r="2.01"/>
                <circle class="cls-3" cx="188.82" cy="56.98" r="2.01"/>
              </g>
            </g>
          </g>
        </g>
      </g>
    </g>
  </g>
</svg>